<!--?xml version="1.0" encoding="utf-8"?-->
<!-- Generator: Adobe Illustrator 18.1.1, SVG Export Plug-In . SVG Version: 6.00 Build 0)  -->

<svg version="1.1" id="_x31_0" xmlns="http://www.w3.org/2000/svg" xmlns:xlink="http://www.w3.org/1999/xlink" x="0px" y="0px" viewBox="0 0 512 512" style="width: 256px; height: 256px; opacity: 1;" xml:space="preserve">
<style type="text/css">
	.st0{fill:#374149;}
</style>
<g>
	<path class="st0" d="M419.246,0H92.754C62.066,0,37.102,24.964,37.102,55.652v400.696c0,30.688,24.964,55.652,55.652,55.652
		h326.493c30.689,0,55.652-24.964,55.652-55.652V55.652C474.898,24.964,449.935,0,419.246,0z M74.203,318.381h363.594v137.967
		c0,10.228-8.323,18.55-18.551,18.55H92.754c-10.228,0-18.55-8.322-18.55-18.55V318.381z M437.798,298.746H74.203V149.334h363.594
		V297.91V298.746z M437.798,129.322v0.381H76.344l-2.141-0.004V55.652c0-10.228,8.322-18.55,18.55-18.55h326.493
		c10.228,0,18.551,8.322,18.551,18.55V129.322z"></path>
	<path class="st0" d="M151.758,170.55c-21.924,0-45.583,12.822-45.583,33.537c0,10.199,7.322,17.609,17.409,17.609
		c3.53,0,6.975-1.377,9.841-3.845c0.659-0.543,1.315-1.098,1.91-1.746c-0.417,2.518-0.808,5.08-1.203,7.656
		c-1.344,8.822-2.742,17.946-5.268,26.678l0.105,2.058l2.106,2.642h1.768c1.63,0,3.178-0.373,4.616-1.112
		c4.304,0.706,8.474,1.112,11.51,1.112c33.127,0,45.475-27.714,45.475-45.178C194.442,173.395,161.768,170.55,151.758,170.55z
		 M136.102,210.761c-0.337-0.623-0.742-1.094-0.982-1.33l-1.805-1.775l-2.294,1.05c-1.413,0.642-3.007,0.964-4.746,0.964
		c-5.714,0-8.373-2.374-8.373-7.474c0-8.558,8.242-15.475,20.471-18.431c3.264-0.769,6.764-1.308,10.543-1.45
		c-7.022,3.102-9.79,11.728-11.507,20.917C136.928,205.742,136.507,208.282,136.102,210.761z M144.779,243.536
		c1.934-5.833,3.054-13.282,4.142-20.507l0.87-5.652c1.05-5.768,1.804-10.822,2.47-15.311c1.04-7.004,1.866-12.54,3.225-14.982
		l0.514-2.471l-1.887-2.384c16.942,0.805,25.525,10.493,25.525,28.822c0,13.772-8.71,33.16-28.079,33.16
		c-2.138,0-4.388-0.232-6.602-0.645C144.898,243.554,144.837,243.55,144.779,243.536z"></path>
	<path class="st0" d="M216.265,188.474c4.434,0,8.188-3.75,8.188-8.188c0-4.438-3.754-8.192-8.188-8.192
		c-4.362,0-8.192,3.83-8.192,8.192C208.073,184.649,211.902,188.474,216.265,188.474z"></path>
	<path class="st0" d="M358.145,222.728l0.014-0.058l0,0l0.018-0.073l-10.232-2.474l-0.326-0.083v0.003l-0.073-0.018l-0.75,3.739
		c-1.938,9.583-8.609,19.351-13.225,19.351c-1.022,0-2.294,0-2.294-5.587c0-4.163,1.062-9.663,1.95-14.239
		c0.692-3.579,1.238-6.409,1.238-8.355c0-10.967-10.434-13.326-18.822-15.221l-0.678-0.159c-0.496-5.533-2.927-8.913-7.569-10.094
		c-4.105,0-8.347,3.464-8.347,9.25c0,4.018,1.525,6.993,4.543,8.862c-0.446,2.953-1.566,9.554-3.612,16.862
		c-2.185,9.606-8.533,18.682-13.062,18.682c-1.345,0-4.493,0-4.493-7.874c0-4.181,1.619-15.659,4.822-34.112l0.503-2.91
		l-2.735-1.119c-1.398-0.573-2.95-0.877-4.478-0.877c-1.779,0-3.42,0.413-4.797,1.195c-2.866-0.92-6.069-1.387-9.533-1.387
		c-15.554,0-24.474,13.467-27.627,25.626l-6.463-1.565l-0.21-0.054l-0.004,0.003l-0.069-0.018l-0.757,3.739
		c-1.938,9.583-8.613,19.351-13.225,19.351c-1.344,0-4.486,0-4.486-7.874c0-5.496,1.438-13.058,2.732-19.87
		c1.152-6.043,2.242-11.742,2.242-15.662v-3.674l0.008-0.38l-0.008,0.003v-0.076l-4.09,0.474c-3.145,0.366-5.341,1.355-8.286,3.054
		l-1.84,1.058v2.123c0,2.054-0.845,6.768-1.66,11.33c-1.322,7.366-2.815,15.718-2.815,22.119c0,12.146,5.653,19.395,15.116,19.395
		c8.642,0,14.888-5.866,19.109-12.119c0.011-0.014,0.018-0.026,0.029-0.037c0.345-0.514,0.642-1.022,0.961-1.536
		c1.014-1.612,1.946-3.239,2.739-4.815c1.5,11.406,7.786,18.507,16.858,18.507c5.391,0,10.13-2.406,14.221-6.906
		c0.529-0.569,1.083-1.047,1.594-1.685c2.474,5.565,7.188,8.59,13.55,8.59c13.834,0,23.047-15.554,26.75-28.931l0.652-2.898
		c1.08-4.348,1.91-8.355,2.54-12.189c0.022-0.123,0.05-0.254,0.072-0.377c6.402,1.703,6.402,2.243,6.402,5.885
		c0,2.221-0.55,5.34-1.166,8.79c-0.71,3.946-1.518,8.42-1.518,12.413c0,15.623,9.044,17.308,12.931,17.308
		c13.25,0,22.978-14.526,26.746-28.924L358.145,222.728z M257.453,243.116c-5.601,0-5.88-10.374-5.88-12.45
		c0-11.699,5.55-23.804,14.84-23.804c2,0,3.808,0.37,5.497,1.134l-0.228,1.294c-0.606,3.453-1.199,6.87-1.609,9.834
		C267.406,233.026,262.102,243.116,257.453,243.116z"></path>
	<path class="st0" d="M403.163,197.066c-1.526-0.577-3.04-0.866-4.504-0.866c-2.126,0-4.138,0.627-5.8,1.815l-1.239,0.884
		l-3.312,20.199c-2.199,11.087-7.181,23.022-12.924,23.022c-1.569,0-4.486,0-4.486-6.877c0-5.47,1.261-11.47,2.526-17.489
		c1.254-5.964,2.554-12.134,2.554-17.953v-3.63l0.011-0.42l-0.011,0.003v-0.076l-4.102,0.478c-3.145,0.366-5.337,1.355-8.271,3.058
		l-1.845,1.054v2.123c0,3.837-0.97,8.772-2.025,14.116c-1.258,6.351-2.554,12.927-2.554,19.235c0,2.587,0.351,4.902,0.909,7.026
		c0.402,1.703,0.906,3.315,1.573,4.775l-0.018,0.011c-6.391,4.457-9.634,10.13-9.634,16.855c0,8.434,6.974,17.406,19.898,17.406
		c10.018,0,22.993-5.927,27.924-34.192c2.529-17.054,5.554-34.685,7.649-46.478l0.536-3.01L403.163,197.066z M383.258,250.685
		c-2.319,13.334-4.957,20.102-11.359,20.102c-2.058,0-8.768-0.609-8.768-8.471c0-3.294,0.442-5.873,2.703-9.344l0.062-0.098
		c1.891,0.845,4.04,1.272,6.41,1.272c3.322,0,6.409-0.87,9.264-2.496C382.138,251.344,382.706,251.047,383.258,250.685z"></path>
	<polygon class="st0" points="140.5,370.888 140.5,370.96 371.5,370.96 371.5,360.96 140.5,360.96 140.5,370.826 140.5,370.888 	"></polygon>
	<polygon class="st0" points="140.5,398.841 371.5,398.841 371.5,388.841 143.388,388.841 140.573,388.837 140.573,388.841 
		140.5,388.841 140.5,398.703 140.5,398.765 140.5,398.765 	"></polygon>
</g>
</svg>
